# xmcd CD database file
# Copyright (C) 1997 Ti Kan
#
# Track frame offsets:
#  150
#  12045
#  22610
#  33352
#  45910
#  57360
#  74275
#  85822
#  95690
#  108395
#  122030
#  131872
#  146897
#  158100
#  170935
#  183887
#
# Disc length: 2672 seconds
#
# Revision: 1
# Processed by: cddbd v1.4b41PL1 Copyright (c) Steve Scherf et al.
# Submitted via: CDWizzard Release:4.32
#
DISCID=d30a6e10
DTITLE=Sam Cooke - Having A Party
DYEAR=1900
DGENRE=
TTITLE0=Baby Baby Baby
TTITLE1=I Ain't Gonna Cheat On You No More
TTITLE2=I'm Gonna Forget About You
TTITLE3=Hold On
TTITLE4=She's Wonderful
TTITLE5=Mean Old World
TTITLE6=Fool's Paradise
TTITLE7=Lost and Lookin'
TTITLE8=Little Red Rooster
TTITLE9=Somebody Have Mercy
TTITLE10=Please Don't Drive Me Away
TTITLE11=Trouble Blues
TTITLE12=Cool Train
TTITLE13=Bring It On Home To Me
TTITLE14=Nothing Can Change This Love
TTITLE15=Having A Party
EXTD=
EXTT0=
EXTT1=
EXTT2=
EXTT3=
EXTT4=
EXTT5=
EXTT6=
EXTT7=
EXTT8=
EXTT9=
EXTT10=
EXTT11=
EXTT12=
EXTT13=
EXTT14=
EXTT15=
PLAYORDER=
